<?xml version="1.0" encoding="UTF-8"?>
<svg id="Ebene_1" data-name="Ebene 1" xmlns="http://www.w3.org/2000/svg" viewBox="0 0 467.167877 411.329741">
  <defs>
    <style>
      .cls-1 {
        fill: #1f3464;
      }

      .cls-1, .cls-2 {
        stroke-width: 0px;
      }

      .cls-2 {
        fill: #fff;
      }
    </style>
  </defs>
  <polygon class="cls-1" points="117.61291 399.942011 343.654134 399.942011 456.674746 204.184569 343.654134 8.427127 117.61291 8.427127 4.592299 204.184569 117.61291 399.942011"/>
  <g>
    <path class="cls-2" d="M208.229905,41.516208h-69.443954c-13.527176,0-24.498276,10.787116-24.498276,24.105525v30.805874c0,13.32419,10.9711,24.124275,24.498276,24.124275h39.579366l23.917569,22.399748v-22.399748h5.947019c13.540045,0,24.511145-10.800085,24.511145-24.124275v-30.805874c0-13.318409-10.9711-24.105525-24.511145-24.105525Z"/>
    <g>
      <path class="cls-1" d="M168.109909,89.109753v-2.093875c-.000001-1.810919.386435-3.385772,1.160118-4.725367.772874-1.338787,2.187654-2.763269,4.24434-4.272638,1.980692-1.414781,3.286332-2.5652,3.918536-3.452065.632204-.886057.948306-1.876403.948306-2.971039,0-1.225604-.45273-2.159359-1.35819-2.801265-.90546-.641097-2.169869-.96205-3.791612-.962049-2.829561,0-6.05526.924864-9.677097,2.772973l-3.084223-6.196737c4.206343-2.35743,8.667348-3.536954,13.383821-3.536956,3.885391-.000001,6.974463.933753,9.267217,2.801262,2.291136,1.867509,3.437514,4.357522,3.437515,7.470039,0,2.075281-.472131,3.867605-1.414779,5.376166-.943456,1.509369-2.73578,3.207106-5.376164,5.093211-1.810918,1.339596-2.957294,2.358238-3.437511,3.055927-.481834.698497-.721942,1.61285-.721941,2.744674v1.697736s-7.498335.000003-7.498335.000003Z"/>
      <path class="cls-1" d="M167.204453,98.786851c0-1.584554.424433-2.781863,1.273301-3.593543.848868-.810872,2.084173-1.216712,3.706724-1.216712,1.565151,0,2.777012.41554,3.63639,1.245005.857761.830274,1.287047,2.018689,1.287047,3.565246,0,1.490774-.434135,2.664638-1.301597,3.522399-.868271.85857-2.07528,1.287855-3.621837,1.287856-1.584554,0-2.810967-.420391-3.678429-1.258749-.868271-.839167-1.301599-2.02354-1.301599-3.551502Z"/>
    </g>
  </g>
  <g>
    <path class="cls-2" d="M69.94345,209.045795v22.475583s-12.419029,0-12.419029,0l-.000002-58.569748h17.066151c7.957336,0,13.847505,1.449077,17.665927,4.347232,3.820712,2.898155,5.729923,7.29804,5.729923,13.199655,0,3.445279-.947738,6.510548-2.845503,9.193516-1.895476,2.685258-4.580733,4.789053-8.051194,6.309096,8.813505,13.167605,14.554875,21.674355,17.226397,25.520248h-13.781117s-13.982569-22.475582-13.982569-22.475582h-6.608984ZM69.94345,198.950326h4.006139c3.926016,0,6.824171-.652429,8.692176-1.961864,1.870294-1.307146,2.806586-3.365157,2.806586-6.169454,0-2.776826-.956895-4.752425-2.866106-5.929085-1.909211-1.174371-4.866886-1.762701-8.873025-1.762701h-3.76577v15.823103Z"/>
    <path class="cls-2" d="M153.623676,231.521376h-33.731688s-.000002-58.569747-.000002-58.569747h33.731688s0,10.175591,0,10.175591h-21.312658v12.86085h19.831532s0,10.173303,0,10.173303h-19.831531v15.104288h21.312658s0,10.255715,0,10.255715Z"/>
    <path class="cls-2" d="M198.925091,182.445031c-4.674592,0-8.293852,1.758123-10.85778,5.26979-2.563929,3.511667-3.845893,8.406024-3.845893,14.683071,0,13.057723,4.901225,19.588874,14.703674,19.588873,4.111443,0,9.09279-1.027861,14.941753-3.083583v10.415961c-4.807366,2.00078-10.175592,3.00346-16.104677,3.00346-8.520485,0-15.0379-2.584531-19.549957-7.751306-4.514346-5.169063-6.771519-12.586143-6.77152-22.255817,0-6.089331,1.107983-11.423218,3.326239-16.003952,2.215967-4.578444,5.400275-8.0924,9.555213-10.535,4.152649-2.444889,9.019535-3.665045,14.602948-3.665045,5.686428,0,11.402615,1.375822,17.146274,4.125178l-4.006138,10.09547c-2.190786-1.041596-4.395307-1.948128-6.611274-2.724174-2.218256-.773757-4.393017-1.162925-6.528862-1.162925Z"/>
    <path class="cls-2" d="M270.38545,231.521373l-4.244218-13.941363h-21.353864s-4.246507,13.941363-4.246507,13.941363h-13.380503s20.671674-58.810116,20.671674-58.810116h15.182121s20.754089,58.810115,20.754089,58.810115h-13.382793ZM263.1744,207.16405c-3.923727-12.631928-6.135116-19.77659-6.629588-21.431697-.494472-1.657397-.847012-2.966832-1.062199-3.928305-.879061,3.420098-3.404073,11.874195-7.570457,25.360003h15.262244Z"/>
    <path class="cls-2" d="M339.80611,191.219616c0,6.304518-1.97102,11.12333-5.908482,14.461016-3.939751,3.339975-9.541478,5.008818-16.807469,5.008818h-5.32702v20.831921s-12.419029,0-12.419029,0l-.000002-58.569748h18.707523c7.105745,0,12.50602,1.5292,16.205403,4.5876,3.699383,3.058401,5.549075,7.618531,5.549075,13.680391ZM311.763139,200.513858h4.086261c3.818422,0,6.675372-.753154,8.573137-2.264041,1.895476-1.508597,2.845503-3.703961,2.845503-6.588381,0-2.911891-.796649-5.06147-2.38537-6.451028-1.58872-1.387269-4.079394-2.083192-7.472021-2.083192h-5.647511v17.386642Z"/>
    <path class="cls-2" d="M399.529626,191.219614c0,6.304518-1.97102,11.12333-5.908482,14.461016-3.939751,3.339975-9.541478,5.008818-16.807469,5.008818h-5.32702v20.831921s-12.419029,0-12.419029,0l-.000002-58.569748h18.707523c7.105745,0,12.50602,1.5292,16.205403,4.5876,3.699383,3.058401,5.549075,7.618531,5.549075,13.680391ZM371.486655,200.513857h4.086261c3.818422,0,6.675372-.753154,8.573137-2.264041,1.895476-1.508597,2.845503-3.703961,2.845503-6.588381,0-2.911891-.796649-5.06147-2.38537-6.451028-1.58872-1.387269-4.079394-2.083192-7.472021-2.083192h-5.647511v17.386642Z"/>
  </g>
  <g>
    <path class="cls-2" d="M257.762688,363.758025h69.443954c13.527176,0,24.498276-10.787116,24.498276-24.105525v-30.805874c0-13.32419-10.9711-24.124275-24.498276-24.124275h-39.579366l-23.917569-22.399748v22.399748h-5.947019c-13.540045,0-24.511145,10.800085-24.511145,24.124275v30.805874c0,13.318409,10.9711,24.105525,24.511145,24.105525Z"/>
    <path class="cls-1" d="M287.456656,341.525402c0-1.606902.430421-2.821208,1.291262-3.644223.86084-.821711,2.112972-1.23387,3.759002-1.233869,1.587337,0,2.815991.421291,3.687265,1.262567.86997.84258,1.305607,2.047757,1.305606,3.615529,0,1.511687-.440856,2.702516-1.319956,3.572486-.880405.86997-2.105146,1.305607-3.672918,1.305606-1.606902,0-2.851207-.426508-3.730307-1.276914-.880404-.850406-1.319954-2.05167-1.319954-3.601182ZM296.036366,331.711827l-7.0015-.000003-1.463417-28.034695,9.928356.000004-1.463439,28.034693Z"/>
  </g>
</svg>